<svg xmlns="http://www.w3.org/2000/svg" width="21.825" height="21.94" viewBox="0 0 21.825 21.94">
  <path id="Path_69" data-name="Path 69" d="M400.618,42.527a10.934,10.934,0,1,0-6.474,12.657,1.42,1.42,0,0,1,.951-.069l3.052.936a1.648,1.648,0,0,0,.479.072,1.621,1.621,0,0,0,1.587-1.921l-.622-3.311a1.408,1.408,0,0,1,.148-.886h0A10.875,10.875,0,0,0,400.618,42.527Zm-2.014,6.9h0a2.652,2.652,0,0,0-.264,1.7l.623,3.31a.34.34,0,0,1-.11.321.331.331,0,0,1-.332.073l-3.052-.935a2.509,2.509,0,0,0-.74-.111,2.816,2.816,0,0,0-1.072.22A9.664,9.664,0,1,1,398.6,49.43Z" transform="translate(-379.094 -34.184)" fill="#4d4d4f"/>
</svg>
