<svg xmlns="http://www.w3.org/2000/svg" width="23.4" height="20.119" viewBox="0 0 23.4 20.119">
  <g id="Group_35" data-name="Group 35" transform="translate(-376.264 -92.246)">
    <path id="Path_31" data-name="Path 31" d="M399.3,102.033a6.945,6.945,0,0,1-.924,1.858,7.633,7.633,0,0,1-1.456,1.562L388.7,112.1a1.146,1.146,0,0,1-.74.268,1.188,1.188,0,0,1-.736-.261l-8.22-6.646a7.262,7.262,0,0,1-2.38-3.428,7.683,7.683,0,0,1,2.042-7.909,6.877,6.877,0,0,1,7.373-1.35,5.252,5.252,0,0,1,1.922,1.424,5.163,5.163,0,0,1,1.925-1.424,6.872,6.872,0,0,1,7.373,1.35A7.687,7.687,0,0,1,399.3,102.033Z" transform="translate(0)" fill="#f05161"/>
  </g>
</svg>
