<svg xmlns="http://www.w3.org/2000/svg" width="18.942" height="21.418" viewBox="0 0 18.942 21.418">
  <path id="Path_70" data-name="Path 70" d="M451.953,154.706h-15.12a1.913,1.913,0,0,0-1.911,1.91v18.116a1.376,1.376,0,0,0,.808,1.262,1.4,1.4,0,0,0,.584.13,1.378,1.378,0,0,0,.9-.337l7.178-6.153,7.178,6.153h0a1.39,1.39,0,0,0,2.294-1.055V156.616A1.913,1.913,0,0,0,451.953,154.706Zm.784,20.026a.263.263,0,0,1-.433.2h0l-7.545-6.467a.563.563,0,0,0-.733,0l-7.545,6.467a.262.262,0,0,1-.432-.2V156.616a.785.785,0,0,1,.784-.784h15.12a.785.785,0,0,1,.784.784Z" transform="translate(-434.922 -154.706)" fill="#4d4d4f"/>
</svg>
