<svg xmlns="http://www.w3.org/2000/svg" width="44.999" height="40.25" viewBox="0 0 44.999 40.25"><defs><style>.a,.b,.e{fill:none;}.b{stroke:#4d4d4f;stroke-width:2px;}.c,.d{stroke:none;}.d{fill:#4d4d4f;}</style></defs><g transform="translate(-1523.522 -29)"><g class="a" transform="translate(1523.522 28)"><path class="c" d="M5,41.25a5,5,0,0,1-5-5V10.625a5,5,0,0,1,5-5h6.25A4.687,4.687,0,0,1,15.937,1H29.062A4.688,4.688,0,0,1,33.75,5.625H40a5,5,0,0,1,5,5V36.249a5,5,0,0,1-5,5Z"/><path class="d" d="M 39.99959945678711 39.24970245361328 C 41.65353012084961 39.24970245361328 42.99909973144531 37.90373229980469 42.99909973144531 36.24930191040039 L 42.99909973144531 10.62450122833252 C 42.99909973144531 8.970571517944336 41.65353012084961 7.625001430511475 39.99959945678711 7.625001430511475 L 33.74958038330078 7.625001430511475 L 31.77533912658691 7.625001430511475 L 31.7497501373291 5.650931835174561 C 31.73080062866211 4.189151763916016 30.5250301361084 2.999901533126831 29.06189918518066 2.999901533126831 L 15.93719959259033 2.999901533126831 C 14.47455978393555 2.999901533126831 13.26918983459473 4.189151763916016 13.25024032592773 5.650931835174561 L 13.22464942932129 7.625001430511475 L 11.25041007995605 7.625001430511475 L 5.000400066375732 7.625001430511475 C 3.345969915390015 7.625001430511475 1.99999988079071 8.970571517944336 1.99999988079071 10.62450122833252 L 1.99999988079071 36.24930191040039 C 1.99999988079071 37.90373229980469 3.345969915390015 39.24970245361328 5.000400066375732 39.24970245361328 L 39.99959945678711 39.24970245361328 M 39.99959945678711 41.24970245361328 L 5.000400066375732 41.24970245361328 C 2.23829984664917 41.24970245361328 -1.342773430224042e-07 39.01050186157227 -1.342773430224042e-07 36.24930191040039 L -1.342773430224042e-07 10.62450122833252 C -1.342773430224042e-07 7.863301753997803 2.23829984664917 5.625001430511475 5.000400066375732 5.625001430511475 L 11.25041007995605 5.625001430511475 C 11.28359985351563 3.06516170501709 13.36950016021729 0.9999016523361206 15.93719959259033 0.9999016523361206 L 29.06189918518066 0.9999016523361206 C 31.63050079345703 0.9999016523361206 33.71638870239258 3.06516170501709 33.74958038330078 5.625001430511475 L 39.99959945678711 5.625001430511475 C 42.76079940795898 5.625001430511475 44.99909973144531 7.863301753997803 44.99909973144531 10.62450122833252 L 44.99909973144531 36.24930191040039 C 44.99909973144531 39.01050186157227 42.76079940795898 41.24970245361328 39.99959945678711 41.24970245361328 Z"/></g><g class="b" transform="translate(1534.772 39.25)"><circle class="c" cx="11.25" cy="11.25" r="11.25"/><circle class="e" cx="11.25" cy="11.25" r="10.25"/></g></g></svg>