<svg xmlns="http://www.w3.org/2000/svg" width="23.32" height="21.734" viewBox="0 0 23.32 21.734"><g transform="translate(-38.176 -93.428)"><path d="M61.5,105.629v7.92a1.611,1.611,0,0,1-1.608,1.613H53.562a1.61,1.61,0,0,1-1.608-1.613v-4.776a2.12,2.12,0,1,0-4.239,0v4.776a1.606,1.606,0,0,1-1.6,1.613H39.78a1.609,1.609,0,0,1-1.6-1.613v-7.92a2.688,2.688,0,0,1,.784-1.9l9.817-9.867a1.491,1.491,0,0,1,1.058-.437,1.475,1.475,0,0,1,1.055.437l9.822,9.867A2.688,2.688,0,0,1,61.5,105.629Z" transform="translate(0)" fill="#707070"/></g></svg>