<svg xmlns="http://www.w3.org/2000/svg" width="92.247" height="44.433" viewBox="0 0 92.247 44.433"><defs><style>.a{fill:#f05161;fill-rule:evenodd;}.b,.c{fill:#fff;}.c{font-size:16.387px;font-family:SegoeUI, Segoe UI;}</style></defs><g transform="translate(-1412.751 -72.291)"><path class="a" d="M84.155,0H8.09A8.091,8.091,0,0,0,0,8.092V28.321c0,4.47,3.622,8.092,7.584,8.092H34.468c5.085,0,11.4,8.02,11.4,8.02s6.873-8.02,11.428-8.02H84.155a8.091,8.091,0,0,0,8.092-8.092V8.092A8.091,8.091,0,0,0,84.155,0Z" transform="translate(1504.998 116.724) rotate(180)"/><g transform="translate(1420.826 85.243)"><path class="b" d="M283.568,221.033a3.56,3.56,0,0,1,1.9.562,4.559,4.559,0,0,1,1.424,5.9c-.777,1.478-4.018,4.244-6.791,6.341a.208.208,0,0,1-.256,0c-2.773-2.1-6.013-4.863-6.791-6.341a4.559,4.559,0,0,1,1.424-5.9,3.561,3.561,0,0,1,1.9-.562,3.763,3.763,0,0,1,3,1.075l.6.815.6-.815a3.639,3.639,0,0,1,3-1.075" transform="translate(-272.522 -215.243)"/><text class="c" transform="translate(19.406 18)"><tspan x="0" y="0">30</tspan></text><g transform="translate(47.631)"><g transform="translate(0 5.324)"><path class="b" d="M327.372,220.567a3.934,3.934,0,1,0,3.938,3.934,3.936,3.936,0,0,0-3.938-3.934Z" transform="translate(-320.153 -220.567)"/><path class="b" d="M320.489,234.351a.327.327,0,0,1-.33-.326l-.006-.913c0-1.857,1-3.366,2.862-3.366h8.714c1.858,0,2.863,1.509,2.863,3.364v.913a.328.328,0,0,1-.329.328Z" transform="translate(-320.153 -220.567)"/></g><text class="c" transform="translate(18.929 18)"><tspan x="0" y="0">5</tspan></text></g></g></g></svg>