<svg xmlns="http://www.w3.org/2000/svg" width="41.488" height="35.823" viewBox="0 0 41.488 35.823"><defs><style>.a{fill:#4d4d4f;}</style></defs><path class="a" d="M325.479,262.988a10.935,10.935,0,0,0-5.81-1.687,11.373,11.373,0,0,0-9.1,4.7,11.374,11.374,0,0,0-9.1-4.7,10.929,10.929,0,0,0-5.809,1.687c-5.581,3.48-7.492,11.188-4.27,17.216,2.627,4.915,13.719,13.452,17.726,16.438a2.428,2.428,0,0,0,2.9,0c4.007-2.986,15.1-11.522,17.728-16.438C332.971,274.176,331.059,266.468,325.479,262.988Zm2.607,16.327C326.117,283,317.914,289.9,310.895,295.13a.539.539,0,0,1-.65,0c-7.019-5.23-15.221-12.13-17.19-15.815-2.759-5.161-1.141-11.767,3.605-14.727a9.093,9.093,0,0,1,4.811-1.4,9.447,9.447,0,0,1,7.586,3.943l1.513,2.032,1.513-2.032a9.445,9.445,0,0,1,7.586-3.943,9.1,9.1,0,0,1,4.812,1.4C329.227,267.548,330.845,274.155,328.086,279.315Z" transform="translate(-289.827 -261.301)"/></svg>