<svg xmlns="http://www.w3.org/2000/svg" width="17.474" height="19.758" viewBox="0 0 17.474 19.758"><path d="M450.633,154.706H436.685a1.765,1.765,0,0,0-1.763,1.762v16.711a1.269,1.269,0,0,0,.746,1.165,1.293,1.293,0,0,0,.539.12,1.271,1.271,0,0,0,.83-.31l6.621-5.676,6.621,5.676h0a1.282,1.282,0,0,0,2.116-.974V156.468A1.765,1.765,0,0,0,450.633,154.706Zm.723,18.473a.242.242,0,0,1-.4.184h0L444,167.4a.519.519,0,0,0-.676,0l-6.96,5.965a.242.242,0,0,1-.4-.184V156.468a.724.724,0,0,1,.723-.723h13.948a.724.724,0,0,1,.723.723Z" transform="translate(-434.922 -154.706)" fill="#707070"/></svg>